<svg xmlns="http://www.w3.org/2000/svg" xmlns:xlink="http://www.w3.org/1999/xlink" viewBox="0 0 1920 450.61"><defs><style>.cls-1{fill:none;}.cls-2{fill:#000027;}.cls-3{clip-path:url(#clip-path);}.cls-4{fill:#f74581;}.cls-5{fill:#212b47;}.cls-6{fill:#f0f2f7;}.cls-7{clip-path:url(#clip-path-2);}.cls-8{fill:#f972a0;}.cls-9{opacity:0.51;}.cls-10{fill:#fff;}.cls-11{opacity:0.7;}.cls-12{fill:#5d96ff;}</style><clipPath id="clip-path"><rect class="cls-1" width="1920" height="1080"/></clipPath><clipPath id="clip-path-2"><path class="cls-1" d="M1522.25,393h0a12,12,0,0,1,11.54-12.54l84.66-3.49,1,24.08-84.66,3.49A12,12,0,0,1,1522.25,393Z"/></clipPath></defs><g id="TEXTS"><rect class="cls-2" width="1920" height="451.92"/><g class="cls-3"><rect class="cls-4" x="-44.93" y="397.6" width="1982.73" height="54.32"/><path class="cls-5" d="M1941.73,415.85H-42.92c-1.21,0-2.19-.55-2.19-1.24s1-1.25,2.19-1.25H1941.73c1.21,0,2.19.56,2.19,1.25S1942.94,415.85,1941.73,415.85Z"/><path class="cls-6" d="M1522.25,393h0a12,12,0,0,1,11.54-12.54l84.66-3.49,1,24.08-84.66,3.49A12,12,0,0,1,1522.25,393Z"/><g class="cls-7"><path class="cls-8" d="M1590.2,371.1a26.92,26.92,0,0,1,4.89,6.17,11.19,11.19,0,0,1,1.28,7.62c-.52,2.3-2,4.28-2.68,6.52-1.74,5.49,1.1,11.28,3.86,16.33l-81.17,3.35L1515,377.7Z"/></g><path class="cls-4" d="M1618.48,401.54l-1-25a2.39,2.39,0,0,1,2.29-2.49h0a2.39,2.39,0,0,1,2.49,2.29l1,25a2.39,2.39,0,0,1-2.29,2.49h0A2.39,2.39,0,0,1,1618.48,401.54Z"/><g class="cls-9"><path class="cls-10" d="M1579.18,397.29a2.68,2.68,0,1,1,2.57-2.78A2.67,2.67,0,0,1,1579.18,397.29Z"/></g><g class="cls-9"><path class="cls-10" d="M1572.12,389a1.55,1.55,0,1,1,1.48-1.61A1.55,1.55,0,0,1,1572.12,389Z"/></g><g class="cls-11"><circle class="cls-10" cx="1560.2" cy="394.34" r="3.74" transform="translate(178.13 1218.73) rotate(-45)"/></g><polygon class="cls-10" points="1536.22 197.44 1530.84 209.76 1518.52 215.14 1530.84 220.53 1536.22 232.84 1541.61 220.53 1553.92 215.14 1541.61 209.76 1536.22 197.44"/><path class="cls-12" d="M1341,304.3c-9.2.81-16-6-15.17-15.17C1335.06,288.32,1341.84,295.1,1341,304.3Z"/><path class="cls-10" d="M1340.3,308.09h-.12a1,1,0,0,1-.89-1.12c0-.42,1.24-10.36,4.8-17a1,1,0,0,1,1.36-.41,1,1,0,0,1,.42,1.36c-3.38,6.33-4.56,16.21-4.57,16.31A1,1,0,0,1,1340.3,308.09Z"/><path class="cls-10" d="M1801.16,353.82h-.4A82.69,82.69,0,0,1,1746,333a1.43,1.43,0,0,1-.17-2l111.86-140.4a1.39,1.39,0,0,1,1-.53,1.37,1.37,0,0,1,1.07.36c21.93,19.66,33,42.84,32.89,68.89-.1,25.85-9.37,49.71-26.11,67.19S1826.44,353.82,1801.16,353.82Zm-52.25-22.11A79.87,79.87,0,0,0,1800.77,351h.39c50.34,0,88.42-39.34,88.63-91.66.1-24.75-10.27-46.86-30.83-65.74Z"/><path class="cls-10" d="M1802.12,384.89h0a1.41,1.41,0,0,1-1.42-1.43l.12-30a1.42,1.42,0,0,1,1.43-1.42h0a1.43,1.43,0,0,1,1.43,1.43l-.12,30A1.43,1.43,0,0,1,1802.12,384.89Z"/><path class="cls-12" d="M1749.74,383.46h105.9a0,0,0,0,1,0,0v0a19.33,19.33,0,0,1-19.33,19.33h-67.24a19.33,19.33,0,0,1-19.33-19.33v0a0,0,0,0,1,0,0Z" transform="matrix(-1, 0, 0, -1, 3603.78, 793.5)"/><circle class="cls-12" cx="1803.02" cy="262.2" r="78.95" transform="translate(342.69 1351.72) rotate(-45)"/><path class="cls-10" d="M1774.29,329.9a91.35,91.35,0,0,1-13.23-.85.64.64,0,0,1,.21-1.27,105.65,105.65,0,0,0,33.09-1c16.66-3.16,39.58-12,54.15-36.47s14.94-47.16,12.66-61.9c-2.48-16-8.49-26.32-8.55-26.43a.64.64,0,0,1,.23-.88.65.65,0,0,1,.88.23c.06.1,6.18,10.61,8.7,26.83,2.33,15,2,38-12.81,62.81s-38.13,33.88-55.06,37.09A110.42,110.42,0,0,1,1774.29,329.9Z"/><path class="cls-10" d="M1758.05,326.7a.65.65,0,0,1-.28-1.23c36.12-17.48,59.31-50.4,72.4-74.94a242.26,242.26,0,0,0,20-49.64.66.66,0,0,1,.78-.47.64.64,0,0,1,.47.78,242.91,242.91,0,0,1-20.07,49.91c-13.18,24.72-36.54,57.89-73,75.52A.58.58,0,0,1,1758.05,326.7Z"/><path class="cls-10" d="M1748.55,319.49a.63.63,0,0,1-.59-.37,106.71,106.71,0,0,1-8.08-32.52c-1.49-17.17.91-42.05,20.83-63s42-27.5,57-29.3c16.29-1.95,28.06,1.1,28.18,1.13a.66.66,0,0,1,.46.79.65.65,0,0,1-.79.46c-.12,0-11.69-3-27.75-1.09-14.81,1.78-36.58,8.24-56.18,28.9s-22,45.1-20.49,62a105.71,105.71,0,0,0,8,32.14.64.64,0,0,1-.31.85A.66.66,0,0,1,1748.55,319.49Z"/><path class="cls-10" d="M1751.66,321.85h-.11a.63.63,0,0,1-.52-.74c7.13-39.86,32.76-71.31,53-90.68a243.83,243.83,0,0,1,42.62-32.81.65.65,0,0,1,.88.24.64.64,0,0,1-.24.88,242.17,242.17,0,0,0-42.4,32.64c-20.09,19.23-45.52,50.45-52.6,89.95A.63.63,0,0,1,1751.66,321.85Z"/><path class="cls-10" d="M1858.52,317.79a.63.63,0,0,1-.39-.13l-123.77-93.83a.64.64,0,0,1,.78-1l123.77,93.82a.64.64,0,0,1,.12.9A.63.63,0,0,1,1858.52,317.79Z"/><path class="cls-10" d="M1814.85,339.06a.6.6,0,0,1-.38-.13l-90.14-68.33a.65.65,0,0,1-.13-.9.66.66,0,0,1,.91-.13l90.13,68.33a.65.65,0,0,1,.13.91A.67.67,0,0,1,1814.85,339.06Z"/><path class="cls-10" d="M1879.81,253.37a.67.67,0,0,1-.38-.13l-90.14-68.33a.65.65,0,1,1,.78-1l90.13,68.33a.64.64,0,0,1,.13.9A.65.65,0,0,1,1879.81,253.37Z"/><rect class="cls-12" x="1277.36" y="375.49" width="128.08" height="24.02"/><rect class="cls-4" x="1283.2" y="362.86" width="119.4" height="12.61"/><rect class="cls-8" x="1284.28" y="353.87" width="119.4" height="9.2"/><rect class="cls-10" x="1317.17" y="383.92" width="50.76" height="6.17"/><rect class="cls-10" x="1317.17" y="367.03" width="50.76" height="4.27"/><rect class="cls-10" x="1328.79" y="358.19" width="29.18" height="1.66"/><path class="cls-12" d="M1356.14,305.59a11.67,11.67,0,0,0-6.69.25,28.53,28.53,0,0,1-17.53,0,11.66,11.66,0,0,0-6.69-.25c-8.76,2.33-13,15-9.44,28.31s13.52,22.19,22.28,19.86h0a9.89,9.89,0,0,1,5.18,0h0c8.76,2.33,18.73-6.56,22.28-19.86S1364.9,307.92,1356.14,305.59Z"/></g><path class="cls-10" d="M1094,177.49a1.41,1.41,0,0,1-1.24-.73l-41.67-73.54-41.77,16.52a1.43,1.43,0,1,1-1.05-2.66l42.93-17a1.42,1.42,0,0,1,1.76.62l42.28,74.63a1.42,1.42,0,0,1-.54,1.94A1.37,1.37,0,0,1,1094,177.49Z"/><path class="cls-10" d="M984.11,113.54A1.45,1.45,0,0,1,983,113L968.44,92.89a1.43,1.43,0,1,1,2.31-1.68l14.52,20.07a1.43,1.43,0,0,1-.32,2A1.47,1.47,0,0,1,984.11,113.54Z"/><circle class="cls-4" cx="1051.05" cy="100.59" r="20.51" transform="translate(143.91 640.9) rotate(-36.25)"/><circle class="cls-4" cx="962.48" cy="82.58" r="11.13"/><path class="cls-4" d="M1100.66,207.74a17,17,0,1,1,6.84-1.45A16.92,16.92,0,0,1,1100.66,207.74Zm0-31.17a14.2,14.2,0,0,0-13.18,9h0a14.15,14.15,0,1,0,18.32-8.06A14.33,14.33,0,0,0,1100.64,176.57Z"/><path class="cls-4" d="M993.82,141.07a17.13,17.13,0,0,1-16-23.32h0a17.1,17.1,0,1,1,16,23.32Zm0-31.38a14.28,14.28,0,0,0-13.31,9.09h0a14.26,14.26,0,1,0,13.31-9.09Z"/><path class="cls-10" d="M580.18,174l-.29,0a1.43,1.43,0,0,1-1.11-1.69l10.4-49.67a1.42,1.42,0,0,1,.89-1,1.41,1.41,0,0,1,1.36.18L633.53,153l14.18-50a1.43,1.43,0,0,1,2.28-.71l39.64,32.62,9.22-49.72a1.43,1.43,0,0,1,2.81.52L692,137.79a1.42,1.42,0,0,1-.91,1.08,1.44,1.44,0,0,1-1.4-.24l-39.82-32.77-14.15,49.91a1.41,1.41,0,0,1-.91,1,1.43,1.43,0,0,1-1.31-.21l-42-31.18-9.94,47.49A1.43,1.43,0,0,1,580.18,174Z"/><circle class="cls-12" cx="579.5" cy="173.26" r="9.61"/><circle class="cls-4" cx="589.87" cy="120.93" r="9.61" transform="translate(217.88 594.42) rotate(-63.43)"/><path class="cls-12" d="M657,98.55a9.6,9.6,0,1,1-12.15-6.08A9.61,9.61,0,0,1,657,98.55Z"/><circle class="cls-10" cx="700.17" cy="84.18" r="9.61" transform="translate(203.88 585.19) rotate(-52.13)"/><path class="cls-10" d="M643.05,152.08A9.6,9.6,0,1,1,630.9,146,9.61,9.61,0,0,1,643.05,152.08Z"/><path class="cls-4" d="M699.17,133.38A9.61,9.61,0,1,1,687,127.3,9.59,9.59,0,0,1,699.17,133.38Z"/><path class="cls-10" d="M1031.94,356.47h-.18l-28.18-3.32a1.59,1.59,0,0,1-1.27-.95L991.1,326.13a1.6,1.6,0,0,1,.19-1.58l17-22.74a1.58,1.58,0,0,1,1.46-.62l28.18,3.32a1.59,1.59,0,0,1,1.27.95l11.21,26.06a1.6,1.6,0,0,1-.19,1.58l-17,22.74A1.62,1.62,0,0,1,1031.94,356.47Zm-27.07-6.38,26.35,3.11,15.87-21.27-10.49-24.37-26.35-3.11-15.87,21.27Z"/><path class="cls-10" d="M986,391.82l-.3,0L972,389.11a1.6,1.6,0,0,1-1.2-1.05l-4.51-13.17a1.61,1.61,0,0,1,.31-1.56l9.15-10.49a1.62,1.62,0,0,1,1.51-.52L990.91,365a1.6,1.6,0,0,1,1.2,1.05l4.51,13.17a1.58,1.58,0,0,1-.31,1.56l-9.15,10.49A1.6,1.6,0,0,1,986,391.82Zm-12.46-5.65,11.87,2.32,8-9.11-3.92-11.44-11.87-2.33-7.95,9.12Z"/><path class="cls-10" d="M991.06,368.59a1.53,1.53,0,0,1-1-.36,1.58,1.58,0,0,1-.22-2.23l12.71-15.45a1.59,1.59,0,0,1,2.46,2L992.28,368A1.57,1.57,0,0,1,991.06,368.59Z"/><path class="cls-10" d="M1262.28,205.75a1.61,1.61,0,0,1-1.13-.47l-19.9-20.22a1.58,1.58,0,0,1-.4-1.53l7.55-27.35a1.57,1.57,0,0,1,1.13-1.11l27.46-7.13a1.56,1.56,0,0,1,1.53.42l19.91,20.21a1.59,1.59,0,0,1,.4,1.54l-7.56,27.35a1.58,1.58,0,0,1-1.13,1.11l-27.46,7.13A1.75,1.75,0,0,1,1262.28,205.75Zm-18.13-22.26,18.62,18.91,25.68-6.67,7.07-25.58-18.62-18.91-25.68,6.67ZM1289.74,197h0Z"/><path class="cls-4" d="M231.12,324.5V312.82a2.05,2.05,0,0,0-2.05-2.05h-12a36.33,36.33,0,0,0-4.94-11.91l8.5-8.5a2.05,2.05,0,0,0,0-2.9l-8.26-8.25a2.05,2.05,0,0,0-2.9,0l-8.49,8.5a36.29,36.29,0,0,0-11.92-4.94v-12a2,2,0,0,0-2.05-2.05H175.33a2,2,0,0,0-2.05,2.05v12a36.33,36.33,0,0,0-11.91,4.94l-8.49-8.5a2.06,2.06,0,0,0-2.91,0l-8.25,8.25a2.05,2.05,0,0,0,0,2.9l8.49,8.5a36.53,36.53,0,0,0-4.93,11.91h-12a2.05,2.05,0,0,0-2.05,2.05V324.5a2.05,2.05,0,0,0,2.05,2.05h12a36.53,36.53,0,0,0,4.93,11.91L141.72,347a2.05,2.05,0,0,0,0,2.9l8.25,8.26a2.06,2.06,0,0,0,2.91,0l8.49-8.5a36.33,36.33,0,0,0,11.91,4.94v12a2.05,2.05,0,0,0,2.05,2.05H187a2,2,0,0,0,2.05-2.05v-12A36.38,36.38,0,0,0,201,349.61l8.49,8.5a2.05,2.05,0,0,0,2.9,0l8.26-8.26a2.05,2.05,0,0,0,0-2.9l-8.5-8.49a36.33,36.33,0,0,0,4.94-11.91h12A2.05,2.05,0,0,0,231.12,324.5Zm-50,14.71a20.55,20.55,0,1,1,20.54-20.55A20.55,20.55,0,0,1,181.17,339.21Z"/><path class="cls-12" d="M413.68,275V259.47a3.18,3.18,0,0,0-3.18-3.19H397a43.55,43.55,0,0,0-5.86-14.13l9.55-9.55a3.19,3.19,0,0,0,0-4.5L392,219.37a3.18,3.18,0,0,0-4.51,0l-9.55,9.54a43.27,43.27,0,0,0-14.14-5.85v-13.5a3.18,3.18,0,0,0-3.18-3.19H348.23a3.18,3.18,0,0,0-3.18,3.19v13.5a43.27,43.27,0,0,0-14.14,5.85l-9.55-9.54a3.17,3.17,0,0,0-4.5,0l-8.74,8.73a3.19,3.19,0,0,0,0,4.5l9.55,9.55a43.55,43.55,0,0,0-5.86,14.13h-13.5a3.18,3.18,0,0,0-3.18,3.19v12.35a3.18,3.18,0,0,0,3.18,3.19h13.5a43.46,43.46,0,0,0,5.86,14.13l-9.55,9.55a3.19,3.19,0,0,0,0,4.5l8.74,8.74a3.19,3.19,0,0,0,4.5,0l9.55-9.55a43.27,43.27,0,0,0,14.14,5.85v13.51a3.18,3.18,0,0,0,3.18,3.19h12.35a3.18,3.18,0,0,0,3.18-3.19V308.23a43.27,43.27,0,0,0,14.14-5.85l9.55,9.55a3.2,3.2,0,0,0,4.51,0l8.73-8.74a3.19,3.19,0,0,0,0-4.5l-9.55-9.55A43.46,43.46,0,0,0,397,275Zm-76.52,7.87a24.38,24.38,0,1,1,34.49,0A24.37,24.37,0,0,1,337.16,282.88Z"/><path class="cls-10" d="M138,214.29c-18.62,0-33.21-38.18-33.21-86.92S119.4,40.45,138,40.45s33.22,38.18,33.22,86.92S156.65,214.29,138,214.29Zm0-171.48c-7.91,0-15.77,8.87-21.55,24.35-6,16.06-9.31,37.45-9.31,60.21s3.31,44.15,9.31,60.21c5.78,15.48,13.64,24.35,21.55,24.35s15.78-8.87,21.56-24.35c6-16.06,9.31-37.45,9.31-60.21s-3.31-44.15-9.31-60.21C153.8,51.68,145.94,42.81,138,42.81Z"/><path class="cls-10" d="M84.33,179.62c-10.74,0-18.23-3-21.58-8.79-4.54-7.87-.8-19.77,10.53-33.52,11.09-13.44,28.18-27.19,48.13-38.71C163.62,74.23,204,67.78,213.3,83.91s-16.46,47.86-58.67,72.23c-19.95,11.52-40.4,19.45-57.59,22.33A77.87,77.87,0,0,1,84.33,179.62ZM191.6,77.49a73.83,73.83,0,0,0-12.21,1.11c-16.91,2.83-37.08,10.66-56.8,22S86,125.58,75.1,138.81c-10.51,12.75-14.27,24-10.31,30.84s15.57,9.22,31.86,6.49c16.92-2.83,37.09-10.66,56.81-22l.58,1-.58-1C173.17,142.72,190,129.16,201,115.93c10.51-12.75,14.26-24,10.31-30.84C208.38,80.1,201.44,77.49,191.6,77.49Z"/><path class="cls-10" d="M191.57,179.7c-17.82,0-43.62-8.24-70.16-23.56h0c-20-11.52-37-25.27-48.13-38.71C62,103.68,58.21,91.78,62.75,83.91S79.47,73.33,97,76.27c17.19,2.88,37.64,10.81,57.59,22.33,42.21,24.37,68,56.1,58.67,72.23C209.84,176.82,202.09,179.7,191.57,179.7Zm-69-25.6c19.72,11.38,39.89,19.21,56.8,22,16.3,2.73,27.91.37,31.87-6.49s.2-18.09-10.31-30.84C190,125.58,173.17,112,153.46,100.64s-39.89-19.21-56.81-22c-16.29-2.73-27.9-.37-31.86,6.49s-.2,18.09,10.31,30.84C86,129.16,102.88,142.72,122.59,154.1Z"/><circle class="cls-12" cx="136.24" cy="127.96" r="17.8" transform="translate(-11.89 241.95) rotate(-80.78)"/><path class="cls-4" d="M193.21,76.94a6.53,6.53,0,1,1-6.53-6.53A6.53,6.53,0,0,1,193.21,76.94Z"/><path class="cls-4" d="M145.74,214a6.53,6.53,0,1,1-6.53-6.53A6.53,6.53,0,0,1,145.74,214Z"/><path class="cls-4" d="M73.35,105.42a6.53,6.53,0,1,1-6.53-6.53A6.52,6.52,0,0,1,73.35,105.42Z"/><rect class="cls-10" x="551.7" y="248.18" width="10.79" height="26.96" transform="translate(-15.17 488.23) rotate(-46.76)"/><path class="cls-12" d="M563.94,359.32h58.63a3.53,3.53,0,0,1,3.53,3.53v7.69a3.53,3.53,0,0,1-3.53,3.53H563.94a0,0,0,0,1,0,0V359.32A0,0,0,0,1,563.94,359.32Z"/><path class="cls-10" d="M566.83,359.09h0a17.42,17.42,0,0,1,17.42,17.42v15.3a0,0,0,0,1,0,0H549.41a0,0,0,0,1,0,0V376.5A17.42,17.42,0,0,1,566.83,359.09Z"/><path class="cls-10" d="M584.23,405.29a64.6,64.6,0,0,1,0-129.19v10.73a53.87,53.87,0,1,0,0,107.73Z"/><path class="cls-12" d="M642.21,407.31H523.05a19.48,19.48,0,0,1,19.48-19.47h80.2a19.48,19.48,0,0,1,19.48,19.47Z"/><rect class="cls-12" x="566.5" y="252.92" width="29.12" height="62.56" rx="2.14" transform="translate(-24.04 512.79) rotate(-46.76)"/><rect class="cls-5" x="573.48" y="263.56" width="15.13" height="41.27" rx="1.26" transform="translate(-24.04 512.77) rotate(-46.76)"/><rect class="cls-10" x="585.83" y="302.29" width="41.53" height="11.86" rx="2.14" transform="translate(-33.5 538.95) rotate(-46.76)"/><rect class="cls-12" x="532.46" y="245.07" width="23.73" height="9.17" rx="2.05" transform="translate(-10.45 475.15) rotate(-46.76)"/><circle class="cls-5" cx="566.17" cy="372.4" r="5.35" transform="translate(73.66 837.87) rotate(-76.72)"/><path class="cls-5" d="M641.57,403.63H524a1.31,1.31,0,1,1,0-2.62H641.57a1.31,1.31,0,0,1,0,2.62Z"/><polygon class="cls-10" points="1255.17 284.18 1249.08 298.11 1235.14 304.21 1249.08 310.3 1255.17 324.24 1261.27 310.3 1275.21 304.21 1261.27 298.11 1255.17 284.18"/><circle class="cls-12" cx="797.2" cy="155.03" r="7.61"/><circle class="cls-4" cx="1016.08" cy="228.28" r="7.61"/><circle class="cls-12" cx="1219.53" cy="366.25" r="7.61"/><circle class="cls-4" cx="678.33" cy="350.47" r="7.61"/><circle class="cls-4" cx="1414.73" cy="161.32" r="7.61" transform="translate(45.96 553.67) rotate(-22.5)"/><polygon class="cls-10" points="727.53 238.37 721.43 252.31 707.5 258.4 721.43 264.5 727.53 278.44 733.62 264.5 747.56 258.4 733.62 252.31 727.53 238.37"/><circle class="cls-4" cx="479.23" cy="59.22" r="7.61"/><path class="cls-10" d="M1681.56,177.17a1.49,1.49,0,0,1-.47-.07l-50.81-15.78a1.59,1.59,0,0,1-1.09-1.17l-11.74-51.89a1.59,1.59,0,0,1,.47-1.53L1657,70.62a1.59,1.59,0,0,1,1.56-.36L1709.36,86a1.58,1.58,0,0,1,1.08,1.17l11.75,51.89a1.62,1.62,0,0,1-.48,1.53l-39.06,36.11A1.6,1.6,0,0,1,1681.56,177.17Zm-49.45-18.63,49,15.23,37.71-34.86-11.33-50.09-49-15.23-37.71,34.86Z"/><circle class="cls-4" cx="1706.74" cy="87.91" r="7.39"/><circle class="cls-12" cx="1657.66" cy="72.52" r="7.39"/><circle class="cls-4" cx="1617.39" cy="107.43" r="7.39"/><circle class="cls-12" cx="1630.99" cy="160.21" r="7.39"/><circle class="cls-4" cx="1680.84" cy="175.84" r="7.39"/><circle class="cls-12" cx="1719.85" cy="139.09" r="7.39"/></g></svg>