<svg xmlns="http://www.w3.org/2000/svg" xmlns:xlink="http://www.w3.org/1999/xlink" viewBox="0 0 1920 1080"><defs><style>.cls-1{fill:none;}.cls-2{fill:#000027;}.cls-3{fill:#5d96ff;}.cls-4{clip-path:url(#clip-path);}.cls-5{fill:#2a395b;}.cls-6{fill:#e8b28e;}.cls-7{fill:#212b47;}.cls-19,.cls-26,.cls-8{fill:#fff;}.cls-9{clip-path:url(#clip-path-2);}.cls-10{fill:#333;}.cls-11{fill:#f74581;}.cls-12{fill:#f0f2f7;}.cls-13{clip-path:url(#clip-path-3);}.cls-14{fill:#f972a0;}.cls-15{opacity:0.51;}.cls-16{opacity:0.7;}.cls-17{clip-path:url(#clip-path-4);}.cls-18{fill:#9dc2fc;}.cls-19{font-size:25.61px;font-family:Montserrat-Medium, Montserrat;font-weight:500;}.cls-20{letter-spacing:-0.05em;}.cls-21{letter-spacing:-0.02em;}.cls-22{letter-spacing:-0.01em;}.cls-23{letter-spacing:-0.01em;}.cls-24{letter-spacing:-0.02em;}.cls-25{letter-spacing:-0.02em;}.cls-26{font-size:90.74px;font-family:Montserrat-Black, Montserrat;font-weight:800;letter-spacing:0.2em;}</style><clipPath id="clip-path"><rect class="cls-1" width="1920" height="1080"/></clipPath><clipPath id="clip-path-2"><path class="cls-1" d="M1548.75,1127.31l-311.07-.34s6.41-430.69,56.53-473.07c14.75-12.47,74.3-24.26,74.3-24.26l1.51-4.22,69.88-4.19,18.36,6.31s81.7,21.8,87.29,47.06C1559.5,737.62,1548.75,1127.31,1548.75,1127.31Z"/></clipPath><clipPath id="clip-path-3"><path class="cls-1" d="M998.26,776.21h0a16.71,16.71,0,0,1-5.51-23l61.41-100.18,28.49,17.47-61.42,100.17A16.7,16.7,0,0,1,998.26,776.21Z"/></clipPath><clipPath id="clip-path-4"><path class="cls-1" d="M1508.74,1026.79h0a16.72,16.72,0,0,1-21.67-9.42L1444,908.05l31.09-12.25,43.09,109.31A16.72,16.72,0,0,1,1508.74,1026.79Z"/></clipPath></defs><g id="BACKGROUND"><rect class="cls-2" width="1920" height="1080"/></g><g id="OBJECTS"><rect class="cls-3" x="88.58" y="504.36" width="143.63" height="23.5"/><g class="cls-4"><path class="cls-5" d="M1543.72,1419c.54-18.6.94-37.51,1.14-56.54,1.55-143.48-.06-417.6-2.12-418.26l-293.49,9c-2,.83-26.45,301.59-19.44,464.16l130.65-.61,22.18-263L1413,1419.47Z"/><path class="cls-6" d="M1051,739.87c7-8.07,17-2.54,0-19.76-8.91-9.06-15.06-23.47-21.9-31.78-3.49-4.24-7.1-4.23-8.92-3.75a5.82,5.82,0,0,0-3.89,3.85c-3.7-2.39-7.74,2.53-8.53,3.61a6.69,6.69,0,0,0-.87,4.93s-3.16-1.52-7.1,2.69c-2.38,2.54-3,4.64-2.19,7,0,0-5.85,3.52-3.74,8.52,1,2.47,8,17.05,27.2,36.74,11.84,12.14,14.66,5.5,21.33-2.25Z"/><path class="cls-7" d="M1015.74,731a2.16,2.16,0,0,1-1.59-.68c-8.32-8.72-17.58-20.69-17.64-20.78a2.2,2.2,0,1,1,3.61-2.5s9.09,11.75,17.21,20.25a2.19,2.19,0,0,1-1.59,3.71Z"/><path class="cls-7" d="M1023.62,722.22a2.16,2.16,0,0,1-1.59-.68c-8.31-8.71-17.36-21.91-17.44-22a2.2,2.2,0,0,1,3.64-2.47c.08.13,9,13.07,17,21.48a2.19,2.19,0,0,1-1.59,3.71Z"/><path class="cls-7" d="M1032.19,713.79a2.2,2.2,0,0,1-1.59-.68c-8.47-8.88-17.46-22-17.84-22.54a1.53,1.53,0,0,1-.11-.16,2.2,2.2,0,0,1,3.71-2.35l.07.1c.32.47,9.12,13.29,17.35,21.91a2.21,2.21,0,0,1-.07,3.11A2.18,2.18,0,0,1,1032.19,713.79Z"/><path class="cls-6" d="M1047.17,692.36c5.85-.79,8,10.18,9.08,19.78.52,4.55,1.71,10.52.6,13.52-1.64,4.42-13.11-9-13.11-9S1035.45,694,1047.17,692.36Z"/><path class="cls-7" d="M1043.28,712.56a2.21,2.21,0,0,1-2.07-1.47c-.11-.31-2.69-7.68-1.81-14.3a2.19,2.19,0,1,1,4.35.58c-.73,5.55,1.58,12.19,1.6,12.26a2.18,2.18,0,0,1-1.34,2.8A2.08,2.08,0,0,1,1043.28,712.56Z"/><path class="cls-8" d="M1278.7,654.56c-34.36,27.9-136,125.12-136,125.12s-77.65-60.51-81.93-54.62l-39.32,33.87c-3.22,4.43,84.67,124.34,131.09,110.33,57.89-17.48,140.21-92.79,157.3-114.7,1.91-2.45.94,10.71.69,7.69l-8.31-100.5C1301.34,650.52,1287.69,647.26,1278.7,654.56Z"/><path class="cls-3" d="M1548.75,1127.31l-311.07-.34s6.41-430.69,56.53-473.07c14.75-12.47,74.3-24.26,74.3-24.26l1.51-4.22,69.88-4.19,18.36,6.31s81.7,21.8,87.29,47.06C1559.5,737.62,1548.75,1127.31,1548.75,1127.31Z"/><g class="cls-9"><rect class="cls-7" x="1242.49" y="637.88" width="329.76" height="10.44"/><rect class="cls-7" x="1242.49" y="668.87" width="329.76" height="10.44"/><rect class="cls-7" x="1242.49" y="699.86" width="329.76" height="10.44"/><rect class="cls-7" x="1242.49" y="730.84" width="329.76" height="10.44"/><rect class="cls-7" x="1242.49" y="761.83" width="329.76" height="10.44"/><rect class="cls-7" x="1242.49" y="792.82" width="329.76" height="10.44"/><rect class="cls-7" x="1242.49" y="823.81" width="329.76" height="10.44"/><rect class="cls-7" x="1242.49" y="854.79" width="329.76" height="10.44"/><rect class="cls-7" x="1236.99" y="885.78" width="329.76" height="10.44"/><rect class="cls-7" x="1236.99" y="916.77" width="329.76" height="10.44"/><rect class="cls-7" x="1238.37" y="947.76" width="329.76" height="10.44"/><rect class="cls-7" x="1238.37" y="978.74" width="329.76" height="10.44"/><rect class="cls-7" x="1231.49" y="1009.73" width="329.76" height="10.44"/><rect class="cls-7" x="1231.49" y="1040.72" width="329.76" height="10.44"/></g><path class="cls-8" d="M1353,1402.8l-133.06-3.5S1230.59,719,1281,653.57c14.85-19.25,89.09-28.1,89.09-28.1Z"/><path class="cls-8" d="M1438.78,1397.27l133.08-2.17s3.84-673.21-40.63-742.81c-16.26-25.45-84.56-28.63-84.56-28.63Z"/><path class="cls-7" d="M1363,885.2a2.19,2.19,0,0,1-2-1.28l-53.87-116.56a2.19,2.19,0,0,1,.61-2.62l26.94-21.91-34.88-7.24a2.2,2.2,0,0,1-1.55-3.06l47-103.85a2.2,2.2,0,0,1,4,1.82l-45.91,101.34,36.72,7.63a2.2,2.2,0,0,1,.94,3.85l-29.2,23.75,53.15,115a2.2,2.2,0,0,1-1.07,2.92A2.31,2.31,0,0,1,1363,885.2Z"/><path class="cls-7" d="M1031.32,778.6a2.2,2.2,0,0,1-1.42-3.88L1078,734.3a2.2,2.2,0,1,1,2.83,3.37l-48.07,40.41A2.16,2.16,0,0,1,1031.32,778.6Z"/><path class="cls-7" d="M1237.09,909.16H1237a2.2,2.2,0,0,1-2.11-2.28c1.25-34,10.44-113.54,10.53-114.34a2.2,2.2,0,0,1,4.37.5c-.09.8-9.26,80.18-10.51,114A2.2,2.2,0,0,1,1237.09,909.16Z"/><path class="cls-6" d="M1415.55,607.44c-130.14.46-114.38-138.45-112.23-153.88.14-1,.26-2,.34-3l.15-1.92a48.14,48.14,0,0,1,46.94-44.37l108.37-2.4a48.09,48.09,0,0,1,49,43.21C1514.16,505.61,1510.19,607.11,1415.55,607.44Z"/><circle class="cls-7" cx="1432.94" cy="502.16" r="8.96" transform="translate(-78.53 357.48) rotate(-13.84)"/><path class="cls-7" d="M1377.82,500.22a9,9,0,1,1,6.48,10.89A9,9,0,0,1,1377.82,500.22Z"/><path class="cls-7" d="M1409.4,544.12a26.6,26.6,0,0,1-13.65-3.61,2.2,2.2,0,1,1,2.27-3.76,23.63,23.63,0,0,0,24.32-.82,2.2,2.2,0,1,1,2.48,3.63,27,27,0,0,1-13.78,4.51C1410.49,544.11,1410,544.12,1409.4,544.12Z"/><path class="cls-6" d="M1503.47,490.77c10.23-2,29.51-5.2,36.78,3.58,6.17,7.45,4,18.83-4,24.62-13.18,9.45-34.82,10-41.32,10.63"/><path class="cls-7" d="M1532.33,504.85a2.14,2.14,0,0,1-1.14-.32c-6.79-4.14-12.28-2.59-12.51-2.53a2.2,2.2,0,0,1-1.29-4.2c.3-.09,7.53-2.25,16.09,3a2.2,2.2,0,0,1-1.15,4.07Z"/><path class="cls-7" d="M1520.48,513.3a2.19,2.19,0,0,1-1.56-3.74,47.45,47.45,0,0,0,6-8.46,2.2,2.2,0,0,1,3.8,2.2,50.6,50.6,0,0,1-6.67,9.35A2.22,2.22,0,0,1,1520.48,513.3Z"/><path class="cls-6" d="M1308.31,496.07c-10.18-2.19-29.38-5.87-36.85,2.74-6.33,7.3-4.45,18.73,3.49,24.7,13,9.75,34.58,10.82,41.07,11.57"/><path class="cls-7" d="M1279.19,509.49a2.2,2.2,0,0,1-1.1-4.1c8.67-5,15.85-2.71,16.15-2.61a2.2,2.2,0,0,1-1.39,4.17c-.26-.08-5.7-1.73-12.56,2.24A2.12,2.12,0,0,1,1279.19,509.49Z"/><path class="cls-7" d="M1290.84,518.21a2.21,2.21,0,0,1-1.59-.69,50.32,50.32,0,0,1-6.46-9.5,2.2,2.2,0,0,1,3.85-2.12,47,47,0,0,0,5.81,8.61,2.2,2.2,0,0,1-1.61,3.7Z"/><path class="cls-6" d="M1380.9,593.37l-3.1,31a3.66,3.66,0,0,0,3.61,4l57.18.65a3.67,3.67,0,0,0,3.7-4l-3-33.83Z"/><path class="cls-7" d="M1425.71,476.87c2.29-2.31,6.86-2.09,10.2-1.78,3.14.29,8.84.61,11.26,2.75a3.88,3.88,0,0,1,1.1,4.28c-.77,1.94-3,3-5.22,3.4a26.53,26.53,0,0,1-6.11.05c-2.77-.19-5.53-.38-8.3-.67a6.2,6.2,0,0,1-2-.46c-1.63-.79-2.19-3.73-2.06-5.07A4,4,0,0,1,1425.71,476.87Z"/><path class="cls-7" d="M1393.56,477.2c-2.17-2.43-6.74-2.46-10.1-2.32-3.15.13-8.85.14-11.38,2.15a3.88,3.88,0,0,0-1.32,4.22c.66,2,2.81,3.18,5,3.67a25.78,25.78,0,0,0,6.1.37c2.78,0,5.55-.09,8.32-.24a5.82,5.82,0,0,0,2-.35c1.66-.7,2.37-3.61,2.32-4.95A4,4,0,0,0,1393.56,477.2Z"/><path class="cls-7" d="M1411.29,527.88a6.19,6.19,0,0,1-3.35-.89,5.33,5.33,0,0,1-2.35-3.71,5.5,5.5,0,0,1,.89-4.25,6.71,6.71,0,0,1,2.93-2.21l.11-3.63a2.2,2.2,0,1,1,4.39.13l-.16,5.21a2.19,2.19,0,0,1-1.86,2.11,3.36,3.36,0,0,0-1.85,1,1.12,1.12,0,0,0-.13.92c.11.58.31.71.39.76a2.93,2.93,0,0,0,1.78.13,2.2,2.2,0,1,1,1.12,4.25A8.06,8.06,0,0,1,1411.29,527.88Z"/><path class="cls-10" d="M1370.23,391.56c-83.9,3.73-73.42,96.32-72.21,100.59s8.13,7.72,12.53,8.35c6.68,1,14.69-50.18,24.21-64.71,3.52,9.59,12.94,20.5,28.81,20.88,17.53.41,29.76-17.23,30.09-28.06.67,10.07,11.23,27.9,28.25,26.5,14.75-1.22,22.14-15.28,22.95-20.66,1.45,11,6.09,21.56,20.26,22.4,16.09.95,19.6-16,18.72-21.78,1.44,12.33,12.25,49,15,60.84.41,1.79,13.89-4.74,15-8.77,7.88-27.83-7-75-32.5-88.65C1470.6,392.74,1431.31,388.85,1370.23,391.56Z"/><path class="cls-7" d="M1407.2,632.56c-17.72,0-29.55-2.74-30.31-2.93a2.2,2.2,0,1,1,1-4.27c.28.07,29.17,6.76,64.27-.93a2.2,2.2,0,0,1,.94,4.29A168.53,168.53,0,0,1,1407.2,632.56Z"/><rect class="cls-11" x="-24.41" y="994.42" width="1982.73" height="95.57"/><path class="cls-7" d="M1962.25,1026.53H-22.39a2.19,2.19,0,0,1-2.19-2.19,2.19,2.19,0,0,1,2.19-2.19H1962.25a2.19,2.19,0,1,1,0,4.38Z"/><path class="cls-8" d="M1751.78,928.89h-.63A130.12,130.12,0,0,1,1664.89,896a2.24,2.24,0,0,1-.26-3.08l176.18-221.15a2.24,2.24,0,0,1,3.26-.27c34.55,31,52,67.48,51.81,108.51-.16,40.71-14.77,78.3-41.13,105.83C1828.16,913.62,1791.61,928.89,1751.78,928.89Zm-82.29-34.83a125.7,125.7,0,0,0,81.68,30.32h.62c79.29,0,139.26-62,139.59-144.37.16-39-16.17-73.8-48.55-103.54Z"/><path class="cls-8" d="M1753.29,977.83h0a2.26,2.26,0,0,1-2.25-2.26l.19-47.18a2.26,2.26,0,0,1,2.25-2.24h0a2.25,2.25,0,0,1,2.25,2.26l-.19,47.18A2.26,2.26,0,0,1,1753.29,977.83Z"/><path class="cls-3" d="M1670.79,975.58H1837.6a0,0,0,0,1,0,0v.9a29.55,29.55,0,0,1-29.55,29.55H1700.34a29.55,29.55,0,0,1-29.55-29.55v-.9A0,0,0,0,1,1670.79,975.58Z" transform="translate(3504.39 1988.66) rotate(-179.77)"/><circle class="cls-3" cx="1754.71" cy="784.59" r="124.36" transform="translate(-40.84 1470.57) rotate(-45)"/><path class="cls-8" d="M1709.46,891.22a143.43,143.43,0,0,1-20.84-1.34,1,1,0,0,1-.83-1.17,1,1,0,0,1,1.17-.84,166,166,0,0,0,52.12-1.58c26.24-5,62.34-19,85.29-57.45s23.53-74.28,19.93-97.49c-3.9-25.18-13.37-41.47-13.46-41.63a1,1,0,1,1,1.74-1c.1.17,9.74,16.72,13.71,42.26,3.67,23.56,3.14,59.85-20.17,98.93s-60.06,53.37-86.73,58.41A172.52,172.52,0,0,1,1709.46,891.22Z"/><path class="cls-8" d="M1683.88,886.17a1,1,0,0,1-.44-1.93c56.9-27.53,93.42-79.39,114-118,22.37-41.94,31.37-77.82,31.46-78.18a1,1,0,0,1,1.22-.74,1,1,0,0,1,.75,1.23c-.09.36-9.14,36.44-31.62,78.6-20.76,38.93-57.56,91.18-115,119A1,1,0,0,1,1683.88,886.17Z"/><path class="cls-8" d="M1668.92,874.83a1,1,0,0,1-.92-.59A168.13,168.13,0,0,1,1655.27,823c-2.35-27,1.43-66.22,32.81-99.28s66.13-43.32,89.8-46.16c25.66-3.07,44.21,1.74,44.39,1.79a1,1,0,1,1-.52,2c-.18-.05-18.42-4.77-43.71-1.72-23.33,2.81-57.61,13-88.49,45.52s-34.57,71-32.27,97.64a166.17,166.17,0,0,0,12.55,50.62,1,1,0,0,1-.48,1.35A1.12,1.12,0,0,1,1668.92,874.83Z"/><path class="cls-8" d="M1673.82,878.54h-.18a1,1,0,0,1-.82-1.18c11.24-62.78,51.6-112.32,83.48-142.83,34.52-33,66.82-51.49,67.14-51.67a1,1,0,1,1,1,1.77c-.32.18-32.43,18.54-66.77,51.4-31.65,30.3-71.71,79.47-82.85,141.69A1,1,0,0,1,1673.82,878.54Z"/><path class="cls-8" d="M1842.13,872.14a1,1,0,0,1-.61-.21l-195-147.78a1,1,0,0,1,1.23-1.62l195,147.79a1,1,0,0,1-.62,1.82Z"/><path class="cls-8" d="M1773.36,905.64a1,1,0,0,1-.61-.2l-142-107.63a1,1,0,0,1,1.23-1.61l142,107.62a1,1,0,0,1,.2,1.42A1,1,0,0,1,1773.36,905.64Z"/><path class="cls-8" d="M1875.67,770.67a1,1,0,0,1-.61-.21l-142-107.62a1,1,0,1,1,1.23-1.62l142,107.63a1,1,0,0,1-.62,1.82Z"/><path class="cls-12" d="M998.26,776.21h0a16.71,16.71,0,0,1-5.51-23l61.41-100.18,28.49,17.47-61.42,100.17A16.7,16.7,0,0,1,998.26,776.21Z"/><g class="cls-13"><path class="cls-14" d="M1025.6,681.07a37.32,37.32,0,0,1,10.88-.87,15.52,15.52,0,0,1,9.77,4.42c2.24,2.37,3.4,5.56,5.43,8.12,5,6.25,13.84,7.45,21.79,8.18l-58.89,96-39.49-24.21Z"/></g><path class="cls-11" d="M1082.5,672l-29.61-18.16a3.32,3.32,0,0,1-1.1-4.57h0a3.33,3.33,0,0,1,4.57-1.09L1086,666.37a3.31,3.31,0,0,1,1.09,4.56h0A3.32,3.32,0,0,1,1082.5,672Z"/><g class="cls-15"><path class="cls-8" d="M1047.24,714a3.71,3.71,0,1,1-1.22-5.11A3.71,3.71,0,0,1,1047.24,714Z"/></g><g class="cls-15"><path class="cls-8" d="M1032.23,715.72a2.16,2.16,0,1,1-.71-3A2.16,2.16,0,0,1,1032.23,715.72Z"/></g><g class="cls-16"><path class="cls-8" d="M1033.58,736.27a5.18,5.18,0,1,1-1.7-7.12A5.17,5.17,0,0,1,1033.58,736.27Z"/></g><path class="cls-12" d="M1508.74,1026.79h0a16.72,16.72,0,0,1-21.67-9.42L1444,908.05l31.09-12.25,43.09,109.31A16.72,16.72,0,0,1,1508.74,1026.79Z"/><g class="cls-17"><path class="cls-18" d="M1449.18,947.72a37.29,37.29,0,0,1,5.85-9.21,15.48,15.48,0,0,1,9.41-5.15c3.24-.36,6.49.63,9.75.54,8-.21,14.27-6.57,19.64-12.49l41.32,104.82-43.11,17Z"/></g><path class="cls-3" d="M1476.18,896.82l-32.32,12.74a3.32,3.32,0,0,1-4.31-1.87h0a3.33,3.33,0,0,1,1.88-4.31l32.32-12.74a3.32,3.32,0,0,1,4.3,1.88h0A3.3,3.3,0,0,1,1476.18,896.82Z"/><g class="cls-15"><path class="cls-8" d="M1488.5,950.23a3.71,3.71,0,1,1-4.81-2.09A3.71,3.71,0,0,1,1488.5,950.23Z"/></g><g class="cls-15"><path class="cls-8" d="M1480.85,963.26a2.16,2.16,0,1,1-2.8-1.21A2.17,2.17,0,0,1,1480.85,963.26Z"/></g><g class="cls-16"><path class="cls-8" d="M1498.09,974.54a5.18,5.18,0,1,1-6.72-2.91A5.19,5.19,0,0,1,1498.09,974.54Z"/></g><path class="cls-6" d="M1527.5,966.08c-7.23-7.83-.59-17.16-19.62-2.29-10,7.83-25,12.28-34.08,18.13-4.61,3-5,6.58-4.75,8.44a5.84,5.84,0,0,0,3.39,4.3c-2.8,3.4,1.63,8,2.61,8.89a6.63,6.63,0,0,0,4.79,1.42s-1.86,3,1.87,7.37c2.25,2.65,4.27,3.55,6.66,3,0,0,2.83,6.22,8.05,4.7,2.56-.76,17.84-6,39.6-22.83,13.41-10.38,7.14-13.94.2-21.45Z"/><path class="cls-7" d="M1490.12,1017a2.19,2.19,0,0,1-1-4.13c.05,0,12.67-7.67,22.08-14.78a2.2,2.2,0,1,1,2.65,3.5c-9.71,7.35-22.57,15.11-22.66,15.15A2.16,2.16,0,0,1,1490.12,1017Z"/><path class="cls-7" d="M1481.08,1007.81a2.2,2.2,0,0,1-1-4.15c.14-.07,14-7.4,23.28-14.42a2.2,2.2,0,0,1,2.65,3.51c-9.63,7.29-23.76,14.74-23.9,14.81A2.16,2.16,0,0,1,1481.08,1007.81Z"/><path class="cls-7" d="M1474,998.49l-.59-1.3-.37-.68-1-2,1,2-1-1.94.07,0c.68-.36,14.35-7.61,23.82-14.77a2.2,2.2,0,0,1,2.65,3.5c-9.79,7.41-23.84,14.84-24.43,15.16Zm.11-.06h0Z"/><path class="cls-6" d="M1479.87,964.44c-.12-5.9,11-6.77,20.68-6.76,4.58,0,10.65-.5,13.5,1,4.2,2.13-10.4,12-10.4,12S1480.11,976.27,1479.87,964.44Z"/><path class="cls-7" d="M1489.65,973.36a26,26,0,0,1-6.27-.69,2.2,2.2,0,1,1,1.07-4.26c5.44,1.36,12.29-.18,12.36-.19a2.2,2.2,0,1,1,1,4.28A40.28,40.28,0,0,1,1489.65,973.36Z"/><path class="cls-8" d="M1460.81,711.07l142.33,141.49s-95.12,98.11-89.76,103.35l27.14,40.71c4,4,162.69-88.41,147-164-8.88-42.81-116.73-143.73-156.19-181.52a18.73,18.73,0,0,0-26.78.55C1486.24,670.69,1455.39,704.48,1460.81,711.07Z"/><path class="cls-7" d="M1556.47,992.53a2.27,2.27,0,0,1-1.91-1l-31.72-49.25a2.26,2.26,0,1,1,3.81-2.45L1558.37,989a2.27,2.27,0,0,1-1.9,3.49Z"/><path class="cls-7" d="M1564.44,874.16a2.2,2.2,0,0,1-2.19-2l-10.76-101.32a2.19,2.19,0,1,1,4.36-.47l10.77,101.32a2.19,2.19,0,0,1-1.95,2.42Z"/><path class="cls-7" d="M1514.13,954.45a2.16,2.16,0,0,1-1.39-.5,2.19,2.19,0,0,1-.31-3.09l49.64-60.74a2.19,2.19,0,1,1,3.4,2.77l-49.64,60.75A2.18,2.18,0,0,1,1514.13,954.45Z"/><path class="cls-7" d="M1542.07,998.76a2.2,2.2,0,0,1-.77-4.25c.33-.13,33.91-12.93,54.45-27.08a2.19,2.19,0,1,1,2.49,3.61c-21,14.46-54,27.05-55.39,27.58A2.33,2.33,0,0,1,1542.07,998.76Z"/><path class="cls-7" d="M1445.62,889.3a2.12,2.12,0,0,1-.91-.21,2.18,2.18,0,0,1-1.08-2.91l54.81-118.88L1469.63,743a2.2,2.2,0,0,1,1-3.84l36.84-7-44.74-103.8a2.2,2.2,0,0,1,4-1.74L1512.59,733a2.19,2.19,0,0,1-1.6,3l-35,6.65L1502.55,765a2.21,2.21,0,0,1,.58,2.6L1447.62,888A2.21,2.21,0,0,1,1445.62,889.3Z"/><path class="cls-8" d="M1119.85,946.25a4.86,4.86,0,1,1-4.85-4.85A4.86,4.86,0,0,1,1119.85,946.25Z"/><rect class="cls-3" x="926.76" y="963.02" width="201.74" height="37.83"/><rect class="cls-11" x="935.96" y="943.13" width="188.06" height="19.86"/><rect class="cls-14" x="937.66" y="928.97" width="188.06" height="14.49"/><rect class="cls-8" x="989.46" y="976.29" width="79.95" height="9.71"/><rect class="cls-8" x="989.46" y="949.7" width="79.95" height="6.72"/><rect class="cls-8" x="1007.77" y="935.78" width="45.95" height="2.62"/><polygon class="cls-8" points="1154.36 611.42 1148.98 623.74 1136.66 629.12 1148.98 634.5 1154.36 646.82 1159.74 634.5 1172.06 629.12 1159.74 623.74 1154.36 611.42"/><path class="cls-3" d="M1026.81,853c-14.49,1.28-25.18-9.41-23.9-23.9C1017.4,827.78,1028.09,838.47,1026.81,853Z"/><path class="cls-8" d="M1025.65,858.92h-.18a1.59,1.59,0,0,1-1.4-1.76c.08-.66,1.94-16.32,7.55-26.83a1.59,1.59,0,0,1,2.8,1.5c-5.32,10-7.17,25.54-7.19,25.69A1.6,1.6,0,0,1,1025.65,858.92Z"/><path class="cls-3" d="M1050.85,852.92a18.5,18.5,0,0,0-10.54.4,44.9,44.9,0,0,1-27.61,0,18.5,18.5,0,0,0-10.54-.4c-13.8,3.68-20.46,23.64-14.87,44.6s21.29,35,35.09,31.28l0,0a15.68,15.68,0,0,1,8.16,0l0,0c13.8,3.67,29.51-10.33,35.1-31.28S1064.65,856.6,1050.85,852.92Z"/></g><path class="cls-8" d="M1049.62,200.6a1.41,1.41,0,0,1-1.24-.73l-41.67-73.54-41.77,16.52a1.44,1.44,0,0,1-1.86-.81,1.42,1.42,0,0,1,.81-1.85l42.93-17a1.42,1.42,0,0,1,1.76.62l42.28,74.63a1.42,1.42,0,0,1-.54,1.94A1.37,1.37,0,0,1,1049.62,200.6Z"/><path class="cls-8" d="M939.7,136.65a1.45,1.45,0,0,1-1.16-.59L924,116a1.43,1.43,0,1,1,2.31-1.68l14.52,20.06a1.45,1.45,0,0,1-.32,2A1.47,1.47,0,0,1,939.7,136.65Z"/><circle class="cls-11" cx="1006.64" cy="123.7" r="20.51" transform="translate(188.25 722.75) rotate(-43.21)"/><circle class="cls-11" cx="918.07" cy="105.69" r="11.13"/><path class="cls-11" d="M1056.25,230.85a17.13,17.13,0,0,1-6.17-1.16,16.92,16.92,0,1,1,6.17,1.16Zm0-31.17a14.2,14.2,0,0,0-13.18,9h0a14.13,14.13,0,1,0,13.18-9Z"/><path class="cls-11" d="M949.41,164.18a17.13,17.13,0,0,1-15.95-23.33h0a17.1,17.1,0,1,1,15.95,23.33Zm0-31.38a14.27,14.27,0,0,0-13.31,9.09h0a14.26,14.26,0,1,0,13.31-9.09Z"/><path class="cls-8" d="M521.2,272.85a1.43,1.43,0,0,1-1.4-1.72l10.4-49.68a1.46,1.46,0,0,1,.89-1,1.44,1.44,0,0,1,1.36.19l42.1,31.28,14.18-50a1.42,1.42,0,0,1,.95-1,1.4,1.4,0,0,1,1.33.26l39.64,32.61,9.22-49.71a1.43,1.43,0,1,1,2.81.52L633,236.66a1.42,1.42,0,0,1-2.31.85l-39.82-32.77-14.15,49.91a1.43,1.43,0,0,1-2.22.76l-42-31.19-9.94,47.49A1.43,1.43,0,0,1,521.2,272.85Z"/><circle class="cls-3" cx="520.52" cy="272.13" r="9.61"/><circle class="cls-11" cx="530.89" cy="219.81" r="9.61" transform="translate(121.81 623.31) rotate(-67.1)"/><path class="cls-3" d="M598.05,197.43a9.6,9.6,0,1,1-12.15-6.08A9.59,9.59,0,0,1,598.05,197.43Z"/><circle class="cls-8" cx="641.18" cy="183.05" r="9.61" transform="translate(117.91 596.34) rotate(-54.24)"/><path class="cls-8" d="M584.07,251a9.6,9.6,0,1,1-12.15-6.07A9.61,9.61,0,0,1,584.07,251Z"/><path class="cls-11" d="M640.19,232.25A9.61,9.61,0,1,1,628,226.18,9.62,9.62,0,0,1,640.19,232.25Z"/><path class="cls-8" d="M1806.45,371.32a1.93,1.93,0,0,1-.63-.1L1737.58,350a2.14,2.14,0,0,1-1.46-1.58l-15.78-69.69a2.15,2.15,0,0,1,.64-2l52.47-48.51a2.13,2.13,0,0,1,2.09-.47l68.24,21.19a2.11,2.11,0,0,1,1.46,1.57L1861,320.19a2.2,2.2,0,0,1-.64,2.06l-52.47,48.5A2.14,2.14,0,0,1,1806.45,371.32Zm-66.42-25,65.87,20.45,50.65-46.82-15.22-67.27-65.87-20.45L1724.81,279Z"/><circle class="cls-11" cx="1840.26" cy="251.44" r="9.92"/><circle class="cls-3" cx="1774.35" cy="230.77" r="9.92"/><circle class="cls-11" cx="1720.27" cy="277.65" r="9.92"/><circle class="cls-3" cx="1738.53" cy="348.54" r="9.92"/><circle class="cls-11" cx="1805.48" cy="369.54" r="9.92"/><circle class="cls-3" cx="1857.88" cy="320.18" r="9.92"/><path class="cls-8" d="M1016.42,554.39h-.19l-28.18-3.32a1.61,1.61,0,0,1-1.27-.95l-11.21-26.06a1.6,1.6,0,0,1,.19-1.58l17-22.74a1.6,1.6,0,0,1,1.46-.62l28.18,3.32a1.59,1.59,0,0,1,1.27.95l11.21,26.06a1.6,1.6,0,0,1-.19,1.58l-17,22.74A1.6,1.6,0,0,1,1016.42,554.39ZM989.34,548l26.35,3.11,15.87-21.27-10.48-24.37-26.36-3.11-15.87,21.27Z"/><path class="cls-8" d="M970.43,589.74l-.3,0L956.46,587a1.59,1.59,0,0,1-1.19-1l-4.52-13.17a1.61,1.61,0,0,1,.31-1.56l9.16-10.49a1.6,1.6,0,0,1,1.5-.52l13.66,2.68a1.58,1.58,0,0,1,1.2,1.05l4.51,13.17a1.6,1.6,0,0,1-.3,1.56l-9.16,10.49A1.58,1.58,0,0,1,970.43,589.74ZM958,584.09l11.87,2.33,7.95-9.12-3.92-11.44L962,563.54l-8,9.11Z"/><path class="cls-8" d="M975.53,566.51a1.53,1.53,0,0,1-1-.36,1.58,1.58,0,0,1-.22-2.23L987,548.47a1.6,1.6,0,0,1,2.24-.21,1.58,1.58,0,0,1,.22,2.23l-12.72,15.45A1.56,1.56,0,0,1,975.53,566.51Z"/><path class="cls-8" d="M1330.36,275.7a1.61,1.61,0,0,1-1.13-.47L1309.33,255a1.58,1.58,0,0,1-.4-1.53l7.55-27.35a1.57,1.57,0,0,1,1.13-1.11l27.46-7.13a1.56,1.56,0,0,1,1.53.42l19.91,20.21a1.62,1.62,0,0,1,.4,1.54l-7.56,27.35a1.58,1.58,0,0,1-1.13,1.11l-27.46,7.13A1.75,1.75,0,0,1,1330.36,275.7Zm-18.13-22.26,18.62,18.91,25.68-6.67,7.07-25.58L1345,221.19l-25.68,6.67ZM1357.82,267h0Z"/><path class="cls-11" d="M661.09,730.69V719a2.05,2.05,0,0,0-2.05-2H647a36.53,36.53,0,0,0-4.93-11.91l8.49-8.5a2.05,2.05,0,0,0,0-2.9l-8.25-8.25a2.06,2.06,0,0,0-2.91,0l-8.49,8.49A36.53,36.53,0,0,0,619,689V677a2.05,2.05,0,0,0-2-2.06H605.31a2.06,2.06,0,0,0-2.06,2.06v12a36.53,36.53,0,0,0-11.91,4.93l-8.49-8.49a2.05,2.05,0,0,0-2.9,0l-8.25,8.25a2,2,0,0,0,0,2.9l8.49,8.5A36.33,36.33,0,0,0,575.25,717h-12a2.05,2.05,0,0,0-2,2v11.67a2,2,0,0,0,2,2h12a36.29,36.29,0,0,0,4.94,11.92l-8.49,8.49a2,2,0,0,0,0,2.9L580,764.3a2.05,2.05,0,0,0,2.9,0l8.49-8.49a36.1,36.1,0,0,0,11.91,4.93v12a2.05,2.05,0,0,0,2.06,2H617a2.05,2.05,0,0,0,2-2v-12a36.1,36.1,0,0,0,11.91-4.93l8.49,8.49a2,2,0,0,0,2.9,0l8.26-8.25a2.05,2.05,0,0,0,0-2.9l-8.49-8.49A36.49,36.49,0,0,0,647,732.74h12A2,2,0,0,0,661.09,730.69Zm-50,14.71a20.55,20.55,0,1,1,20.55-20.54A20.55,20.55,0,0,1,611.14,745.4Z"/><path class="cls-3" d="M772.76,863.22V847.68a3.18,3.18,0,0,0-3.19-3.18h-13.5a43.29,43.29,0,0,0-5.86-14.14l9.55-9.55a3.17,3.17,0,0,0,0-4.5L751,807.58a3.18,3.18,0,0,0-4.51,0L737,817.13a43,43,0,0,0-14.13-5.86v-13.5a3.19,3.19,0,0,0-3.19-3.19H707.31a3.19,3.19,0,0,0-3.19,3.19v13.5A43.08,43.08,0,0,0,690,817.13l-9.55-9.55a3.17,3.17,0,0,0-4.5,0l-8.73,8.73a3.17,3.17,0,0,0,0,4.5l9.54,9.55a43.49,43.49,0,0,0-5.85,14.14h-13.5a3.18,3.18,0,0,0-3.19,3.18V860a3.19,3.19,0,0,0,3.19,3.19h13.5a43.49,43.49,0,0,0,5.85,14.14l-9.54,9.54a3.18,3.18,0,0,0,0,4.51l8.73,8.73a3.19,3.19,0,0,0,4.5,0l9.55-9.55a43.29,43.29,0,0,0,14.14,5.86V910a3.19,3.19,0,0,0,3.19,3.19h12.34a3.19,3.19,0,0,0,3.19-3.19v-13.5A43.24,43.24,0,0,0,737,890.59l9.55,9.55a3.2,3.2,0,0,0,4.51,0l8.73-8.73a3.18,3.18,0,0,0,0-4.51l-9.55-9.54a43.29,43.29,0,0,0,5.86-14.14Zm-76.52,7.88a24.38,24.38,0,1,1,34.48,0A24.38,24.38,0,0,1,696.24,871.1Z"/><path class="cls-8" d="M162.89,252.47c-18.63,0-33.22-38.18-33.22-86.92s14.59-86.92,33.22-86.92,33.22,38.18,33.22,86.92S181.51,252.47,162.89,252.47Zm0-171.48c-7.92,0-15.77,8.87-21.56,24.34-6,16.07-9.31,37.45-9.31,60.22s3.31,44.15,9.31,60.21c5.79,15.48,13.64,24.35,21.56,24.35s15.77-8.87,21.55-24.35c6-16.06,9.31-37.45,9.31-60.21s-3.31-44.15-9.31-60.22C178.66,89.86,170.8,81,162.89,81Z"/><path class="cls-8" d="M109.19,217.8c-10.74,0-18.23-3-21.57-8.79-4.55-7.87-.81-19.77,10.53-33.52,11.08-13.44,28.18-27.19,48.13-38.71,42.21-24.37,82.57-30.82,91.88-14.69S221.7,170,179.5,194.32c-20,11.52-40.41,19.45-57.59,22.33A78.09,78.09,0,0,1,109.19,217.8ZM216.46,115.67a73.62,73.62,0,0,0-12.2,1.11c-16.92,2.83-37.09,10.66-56.8,22S110.87,163.76,100,177c-10.51,12.74-14.26,24-10.31,30.84s15.58,9.22,31.87,6.49c16.91-2.83,37.08-10.66,56.8-22l.59,1-.59-1c19.71-11.38,36.58-24.94,47.49-38.17,10.51-12.75,14.27-24,10.31-30.84C233.24,118.28,226.3,115.67,216.46,115.67Z"/><path class="cls-8" d="M216.43,217.87c-17.82,0-43.62-8.23-70.15-23.55h0c-20-11.52-37-25.27-48.13-38.71C86.81,141.86,83.07,130,87.62,122.09s16.71-10.58,34.29-7.64c17.18,2.88,37.63,10.81,57.59,22.33,42.21,24.37,68,56.1,58.66,72.23C234.7,215,227,217.87,216.43,217.87Zm-69-25.59c19.71,11.38,39.88,19.21,56.8,22,16.29,2.73,27.9.37,31.86-6.49s.2-18.1-10.31-30.84C214.9,163.76,198,150.2,178.32,138.82s-39.89-19.21-56.8-22c-16.29-2.73-27.91-.37-31.87,6.49s-.2,18.09,10.31,30.84C110.87,167.34,127.74,180.9,147.46,192.28Z"/><circle class="cls-3" cx="161.11" cy="166.14" r="17.8" transform="translate(-28.7 298.56) rotate(-80.78)"/><path class="cls-11" d="M218.07,115.11a6.53,6.53,0,1,1-6.53-6.52A6.53,6.53,0,0,1,218.07,115.11Z"/><path class="cls-11" d="M170.6,252.18a6.53,6.53,0,1,1-6.53-6.53A6.53,6.53,0,0,1,170.6,252.18Z"/><path class="cls-11" d="M98.21,143.6a6.53,6.53,0,1,1-6.52-6.53A6.52,6.52,0,0,1,98.21,143.6Z"/><rect class="cls-8" x="355.99" y="771.71" width="16.1" height="40.25" transform="translate(-462.18 514.56) rotate(-46.76)"/><path class="cls-3" d="M374.26,937.59h89.24a3.53,3.53,0,0,1,3.53,3.53v14.95a3.53,3.53,0,0,1-3.53,3.53H374.26a0,0,0,0,1,0,0v-22A0,0,0,0,1,374.26,937.59Z"/><path class="cls-8" d="M378.56,937.24h0a26,26,0,0,1,26,26v22.83a0,0,0,0,1,0,0h-52a0,0,0,0,1,0,0V963.24a26,26,0,0,1,26-26Z"/><path class="cls-8" d="M404.54,1006.2a96.41,96.41,0,0,1,0-192.82v16a80.41,80.41,0,0,0,0,160.81Z"/><path class="cls-3" d="M491.09,1009.23H313.22a29.07,29.07,0,0,1,29.08-29.07H462a29.07,29.07,0,0,1,29.08,29.07Z"/><rect class="cls-3" x="378.08" y="778.78" width="43.47" height="93.38" rx="2.14" transform="translate(-475.42 551.21) rotate(-46.76)"/><rect class="cls-7" x="388.5" y="794.65" width="22.58" height="61.6" rx="1.26" transform="translate(-475.41 551.19) rotate(-46.76)"/><rect class="cls-8" x="406.93" y="852.46" width="61.98" height="17.71" rx="2.14" transform="translate(-489.53 590.26) rotate(-46.76)"/><rect class="cls-3" x="327.27" y="767.07" width="35.42" height="13.68" rx="2.05" transform="translate(-455.13 495.03) rotate(-46.76)"/><circle class="cls-7" cx="377.59" cy="957.12" r="7.99" transform="translate(-640.56 1105.52) rotate(-76.76)"/><path class="cls-7" d="M490.13,1003.73H314.71a2,2,0,1,1,0-3.91H490.13a2,2,0,0,1,0,3.91Z"/><polygon class="cls-8" points="1635.11 420.62 1626.83 439.56 1607.9 447.83 1626.83 456.11 1635.11 475.04 1643.38 456.11 1662.32 447.83 1643.38 439.56 1635.11 420.62"/><circle class="cls-3" cx="877.63" cy="302.86" r="10.34"/><circle class="cls-11" cx="1174.89" cy="402.35" r="10.34"/><circle class="cls-3" cx="1762.82" cy="557.29" r="10.34"/><circle class="cls-11" cx="913.8" cy="783.65" r="10.34"/><circle class="cls-11" cx="1555.29" cy="241.2" r="10.34" transform="translate(26.09 613.54) rotate(-22.5)"/><polygon class="cls-8" points="783 416.05 774.72 434.98 755.79 443.26 774.72 451.54 783 470.47 791.27 451.54 810.21 443.26 791.27 434.98 783 416.05"/><circle class="cls-11" cx="447.13" cy="89.89" r="10.34"/><circle class="cls-3" cx="221.87" cy="894.26" r="10.34"/></g><g id="TEXTS"><text class="cls-19" transform="translate(87.48 596.24)"><tspan class="cls-20">W</tspan><tspan x="27.43" y="0">ebsi</tspan><tspan class="cls-21" x="80.55" y="0">t</tspan><tspan x="90.7" y="0">e belajar </tspan><tspan class="cls-22" x="208.85" y="0">k</tspan><tspan x="224.45" y="0">imia untuk si</tspan><tspan class="cls-23" x="393.39" y="0">s</tspan><tspan class="cls-24" x="405.97" y="0">w</tspan><tspan x="428.56" y="0" xml:space="preserve">a  </tspan><tspan x="0" y="38.42">dan si</tspan><tspan class="cls-23" x="77.1" y="38.42">s</tspan><tspan x="89.67" y="38.42">wi SMA </tspan><tspan class="cls-25" x="192.74" y="38.42">k</tspan><tspan x="207.95" y="38.42">elas 10 </tspan></text><text class="cls-26" transform="translate(87.04 473.69)">CHEMTEN</text></g></svg>