<svg xmlns="http://www.w3.org/2000/svg" viewBox="0 0 222.98 222.98"><defs><style>.cls-1{fill:#fff;}.cls-2{fill:#f64480;}.cls-3{fill:#001419;}.cls-4{fill:#a1adb9;}</style></defs><g id="Layer_2" data-name="Layer 2"><g id="OBJECTS"><circle class="cls-1" cx="111.49" cy="111.49" r="111.49"/><path class="cls-2" d="M51.19,153.31c7.4-25.94,33.06-24.5,33.06-24.5l8.07-22.39C40.19,104.32,51.19,153.31,51.19,153.31Z"/><path class="cls-3" d="M50.25,154.48a1.52,1.52,0,0,1-.53-.85c-.2-.89-4.78-22.09,7.15-36.4,7.36-8.82,19.3-13,35.51-12.31a1.5,1.5,0,0,1,1.19.66,1.48,1.48,0,0,1,.17,1.34l-8.08,22.4a1.49,1.49,0,0,1-1.49,1c-1-.05-24.57-1-31.54,23.42a1.5,1.5,0,0,1-2.38.76Zm40-46.62c-14.18-.2-24.61,3.59-31,11.29-7.35,8.8-7.81,20.84-7.3,27.93C60.19,129,78.46,127.4,83.19,127.3Z"/><path class="cls-2" d="M125.42,132.86l-20,12.82s7.06,24.71-16.6,37.66C88.77,183.34,139,183.24,125.42,132.86Z"/><path class="cls-3" d="M87.84,184.51a1.5,1.5,0,0,1,.21-2.49c22.3-12.2,16.15-35,15.88-35.93a1.49,1.49,0,0,1,.63-1.67l20.06-12.82a1.49,1.49,0,0,1,2.25.87c4.22,15.67,2.81,28.23-4.16,37.35-11.33,14.8-33,15-33.93,15A1.53,1.53,0,0,1,87.84,184.51Zm19.23-38.13c1,4.63,3.44,22.79-12.37,34.9,7-1.07,18.69-4.2,25.64-13.29,6.08-8,7.47-19,4.14-32.75Z"/><path class="cls-1" d="M172.79,39.64s-3.17,73.64-67.42,106L84.25,128.81C101.66,59,172.79,39.64,172.79,39.64Z"/><path class="cls-3" d="M104.43,146.85,83.31,130a1.51,1.51,0,0,1-.52-1.54c9.11-36.52,33-59.12,51.41-71.64,19.94-13.55,37.46-18.41,38.19-18.61a1.56,1.56,0,0,1,1.9,1.51c0,.76-.91,18.92-9.72,41.36-8.15,20.73-24.91,49-58.53,66A1.5,1.5,0,0,1,104.43,146.85ZM85.94,128.24l19.61,15.66c32.16-16.55,48.3-43.8,56.19-63.84a146.09,146.09,0,0,0,9.39-38.34A145.68,145.68,0,0,0,135.8,59.34C118,71.46,95,93.22,85.94,128.24Z"/><polygon class="cls-4" points="105.37 145.68 94.49 154.79 77.77 141.42 84.25 128.81 105.37 145.68"/><path class="cls-3" d="M93.56,156,76.83,142.6a1.51,1.51,0,0,1-.4-1.86l6.48-12.62a1.5,1.5,0,0,1,1-.78,1.51,1.51,0,0,1,1.25.29l21.12,16.88a1.48,1.48,0,0,1,.57,1.15,1.51,1.51,0,0,1-.54,1.17l-10.87,9.11A1.52,1.52,0,0,1,93.56,156ZM79.66,141l14.81,11.83,8.53-7.14L84.74,131.12Z"/><path class="cls-3" d="M129,94.5a11.57,11.57,0,1,1,16.26-1.82A11.59,11.59,0,0,1,129,94.5ZM142.15,78a9.57,9.57,0,1,0,1.5,13.44A9.58,9.58,0,0,0,142.15,78Z"/><path class="cls-3" d="M96.81,151.67,80.3,138.48a1,1,0,0,1,1.25-1.57l16.51,13.2a1,1,0,0,1,.15,1.4A1,1,0,0,1,96.81,151.67Z"/><path class="cls-3" d="M50.75,147.13a1,1,0,0,1-.34-1.07c5.65-18.69,18.47-21.55,19-21.66a1,1,0,0,1,1.19.78,1,1,0,0,1-.78,1.18c-.12,0-12.22,2.79-17.5,20.28a1,1,0,0,1-1.25.66A.8.8,0,0,1,50.75,147.13Z"/><path class="cls-3" d="M73.27,125.67a.91.91,0,0,1-.25-.3.89.89,0,0,1-.12-.37,1,1,0,0,1,.21-.74.91.91,0,0,1,.3-.25,1,1,0,0,1,.37-.11,1,1,0,0,1,1,.5,1.21,1.21,0,0,1,.12.38,1,1,0,0,1,0,.38,1,1,0,0,1-.17.35,1,1,0,0,1-1.41.16Z"/><path class="cls-3" d="M94.9,182.4a1,1,0,0,1,.13-1.65c8.31-4.72,12.19-10.33,14-14.2a18.9,18.9,0,0,0,1.92-7.35,1,1,0,0,1,2,0c0,.55,0,13.68-16.93,23.32A1,1,0,0,1,94.9,182.4Z"/><path class="cls-3" d="M110.86,155.7a1,1,0,0,1-.38-.67,1,1,0,0,1,.51-1,1.33,1.33,0,0,1,.37-.12h.2a1.08,1.08,0,0,1,.19,0l.19.07a1,1,0,0,1,.53.78,1,1,0,0,1,0,.39,1.06,1.06,0,0,1-.18.35,1,1,0,0,1-1.4.16Z"/><path class="cls-3" d="M149.74,95a1,1,0,0,1-.19-1.35c.07-.12,7.78-11.39,15.17-40.57a1,1,0,1,1,1.94.49c-7.5,29.61-15.15,40.76-15.48,41.22a1,1,0,0,1-1.39.25Z"/><path class="cls-3" d="M146.76,100.08a.89.89,0,0,1-.24-.3.77.77,0,0,1-.12-.37,1,1,0,0,1,0-.39,1.11,1.11,0,0,1,.18-.34,1,1,0,0,1,.67-.38,1.29,1.29,0,0,1,.39,0,1,1,0,0,1,.72.85,1,1,0,0,1-.22.74,1.37,1.37,0,0,1-.29.25,1.09,1.09,0,0,1-.77.08A1.06,1.06,0,0,1,146.76,100.08Z"/><path class="cls-3" d="M125.17,125.73a.53.53,0,0,1-.13-.13,1,1,0,0,1,.1-1.41c.12-.09,11.42-9.87,17.83-19.92a1,1,0,0,1,1.69,1.08c-6.58,10.3-17.74,20-18.21,20.36A1,1,0,0,1,125.17,125.73Z"/><path class="cls-3" d="M155.67,70a1,1,0,0,1-.32-1.09l3.08-9.38a1,1,0,0,1,1.9.63l-3.09,9.37a1,1,0,0,1-1.26.64A1.17,1.17,0,0,1,155.67,70Z"/><path class="cls-3" d="M154.13,74a.91.91,0,0,1-.25-.3.94.94,0,0,1-.12-.38,1.25,1.25,0,0,1,0-.38,1.29,1.29,0,0,1,.18-.35,1,1,0,0,1,.3-.24,1,1,0,0,1,.37-.13,1.29,1.29,0,0,1,.39,0,.94.94,0,0,1,.49.32.62.62,0,0,1,.1.16.76.76,0,0,1,.09.18.9.9,0,0,1,0,.19,1.08,1.08,0,0,1,0,.39,1.11,1.11,0,0,1-.18.34.81.81,0,0,1-.3.25.9.9,0,0,1-.36.12,1.07,1.07,0,0,1-.4,0A1.11,1.11,0,0,1,154.13,74Z"/><path class="cls-3" d="M99.41,135.58,85.29,124.3a1,1,0,0,1-.16-1.4,1,1,0,0,1,1.41-.16L100.65,134a1,1,0,1,1-1.24,1.56Z"/><path class="cls-3" d="M102.27,137.86a1,1,0,0,1-.37-.66,1,1,0,0,1,.88-1.11,1,1,0,0,1,1.1.88,1,1,0,0,1-.21.74.91.91,0,0,1-.3.25,1,1,0,0,1-.37.12A1,1,0,0,1,102.27,137.86Z"/><path class="cls-3" d="M96.41,127.28l-4.71-3.76A1,1,0,1,1,93,122l4.7,3.76a1,1,0,1,1-1.24,1.56Z"/><path class="cls-3" d="M100,130.12a1,1,0,0,1-.16-1.41,1,1,0,0,1,.67-.37,1.2,1.2,0,0,1,.38,0,1,1,0,0,1,.6.49.77.77,0,0,1,.12.36,1.41,1.41,0,0,1,0,.21s0,.12,0,.18,0,.12-.07.19l-.11.16a1,1,0,0,1-.67.37,1.29,1.29,0,0,1-.39,0A.86.86,0,0,1,100,130.12Z"/><path class="cls-3" d="M95.91,121.18l-6.73-5.37a1,1,0,0,1,1.25-1.56l6.72,5.37a1,1,0,1,1-1.24,1.56Z"/></g></g></svg>